<svg xmlns="http://www.w3.org/2000/svg" width="264" height="240" xmlns:v="https://vecta.io/nano"><style><![CDATA[.B{stroke-linecap:round}.C{stroke-linejoin:round}.D{stroke-miterlimit:10}]]></style><defs><clipPath id="A"><rect width="264" height="240" rx="8" fill="#f7f8f9" x="1112" y="768"/></clipPath></defs><g transform="translate(-1112 -768)" opacity=".3" clip-path="url(#A)" fill="none" stroke="#c0ced5"><g class="C"><path d="M1097.618 757.573h-3.685v-3.685c0-1.406-.75-2.705-1.967-3.407s-2.717-.703-3.935 0-1.967 2.002-1.967 3.407v3.685h-3.686c-2.173 0-3.935 1.762-3.935 3.935s1.762 3.935 3.935 3.935h3.686v3.685c0 1.406.75 2.705 1.967 3.407s2.717.703 3.935 0 1.967-2.002 1.967-3.407v-3.685h3.685c2.173 0 3.935-1.762 3.935-3.935s-1.762-3.935-3.935-3.935z"/><circle cx="1143.148" cy="753.881" r="3.928"/><circle cx="1143.148" cy="769.134" r="3.928"/><circle cx="1150.774" cy="761.508" r="3.928"/><circle cx="1135.521" cy="761.508" r="3.928"/><path d="M1143.14 741.51h-53.143c-10.04 0-18.525 7.445-19.83 17.4s4.973 19.335 14.674 21.924 19.818-2.417 23.646-11.7h16.164c3.828 9.282 13.945 14.288 23.646 11.7s15.98-11.97 14.674-21.924-9.8-17.4-19.83-17.4z"/><g class="B"><path d="M1108.588 763.895h15.773m-15.773-4.922h15.773"/><path d="M1116.475 741.5v-3.6a3.73 3.73 0 0 1 3.733-3.732h19.208c2.062 0 3.733-1.67 3.733-3.733h0a3.73 3.73 0 0 0-3.733-3.732h-22.94m-16.908 190.15a6.48 6.48 0 0 1-6.479-6.479v-93.122a6.48 6.48 0 0 1 6.479-6.479h75.255v93.075h-5.214"/></g><path d="M1099.59 903.87h71.976v13h-71.976a6.5 6.5 0 0 1-6.5-6.5h0a6.5 6.5 0 0 1 6.5-6.5z"/><g class="B"><path d="M1171.565 916.873h3.26m-70.395-4.423h67.135m-43.4-4.157h43.4"/></g><rect width="25.631" height="25.631" rx=".547" transform="matrix(.002 -1 1 .002 1141.529 896.577)"/><path d="M1151.97 874.613l-6.66-.024-.027 6.657 6.66.026zm-2.237 4.432l-2.22-.01.01-2.22 2.22.01zm6.865-4.398l-.026 6.9 6.9.026.026-6.9zm4.584 4.62l-2.3-.008.008-2.3 2.3.01zm-15.955 13.51l6.705.026.025-6.705-6.705-.026zm2.252-4.46l2.234.01-.008 2.234-2.234-.01z"/><rect width="39.986" height="7.552" rx="3.761" x="1116.703" y="840.527"/><rect width="56.172" height="7.552" rx="3.761" x="1108.61" y="827.1"/><g class="B"><path d="M1099.6 903.87v-35m-.02-58.077v37.286m125.168 192.046a4.57 4.57 0 0 1-3.23-1.337 4.56 4.56 0 0 1-1.337-3.23v-53.64a4.57 4.57 0 0 1 1.337-3.23 4.56 4.56 0 0 1 3.23-1.337h53.032v53.606h-3.674"/></g><path d="M1224.754 1030.96h50.718v9.164h-50.718a4.58 4.58 0 0 1-4.582-4.582h0a4.58 4.58 0 0 1 4.582-4.582z"/><g class="B"><path d="M1275.474 1040.125h2.297m-43.904-4.83h41.607"/></g><rect width="18.062" height="18.062" rx=".385" transform="matrix(.002 -1 1 .002 1254.308 1025.822)"/><path d="M1261.667 1010.344l-4.693-.016-.02 4.692 4.693.018zm-1.577 3.123l-1.564-.006.006-1.564 1.564.006zm4.837-3.1l-.018 4.865 4.864.018.02-4.864zm3.23 3.256l-1.62-.006.006-1.62 1.622.006zm-11.243 9.52l4.725.018.018-4.725-4.725-.02zm1.587-3.143l1.574.006-.006 1.574-1.574-.006z"/><g class="B"><path d="M1224.754 1030.96v-24.665m-.016-28.94v18.284m5.902 5.132s10-2.187 10.178-9.523c.176-7.7-5.8-4.457-4.387 2.43s5.615 7.294 6.844 7.294c7.37 0 11.593-18.235 6.14-18.235-4.74 0-3.16 19.45 4.738 19.45 6.578 0 11.6-16.157 5.44-16.4-4.913-.2-3.86 18.03 11.582 13.17m61.725-128.7c-2.907 0-5.263-2.356-5.264-5.263v-42.77c.001-2.907 2.357-5.263 5.264-5.263h80.845v42.732h-4.235"/></g><path d="M1332.927 859.693h78.18v10.563h-78.18a5.28 5.28 0 0 1-5.281-5.282h0a5.28 5.28 0 0 1 5.281-5.281z"/><g class="B"><path d="M1411.108 870.256h2.647m-76.897-3.593h74.25m-54.978-3.376h54.98"/></g><rect width="17.753" height="17.753" rx=".379" transform="matrix(.002 -1 1 .002 1389.295 853.777)"/><path d="M1396.528 838.564l-4.613-.016-.02 4.6 4.612.018zm-1.55 3.07l-1.538-.006.006-1.538 1.538.006zm4.755-3.047l-.018 4.78 4.78.018.018-4.78zm3.175 3.2l-1.594-.006.006-1.594 1.594.006zm-11.05 9.358l4.644.017.017-4.644-4.644-.018zm1.56-3.1l1.547.006-.006 1.547-1.547-.006z"/><g class="B"><path d="M1332.9 816.96v11.925m0 11.205v19.604"/></g></g><path d="M1413.755 829.6c-8.084 0-8.084-5.26-16.168-5.258s-8.084 5.258-16.168 5.258-8.084-5.26-16.168-5.258-8.085 5.258-16.17 5.258-8.085-5.26-16.17-5.258" class="D"/><g class="C"><path d="M1331.778 743.948c-1.868-1.87-1.868-4.898 0-6.767l27.5-27.5c.897-.898 2.114-1.402 3.384-1.402s2.486.504 3.383 1.402l51.975 51.975-27.472 27.47-2.723-2.723" class="B"/><path d="M1338.58 737.167l50.262 50.262-6.788 6.788-50.262-50.262a4.8 4.8 0 0 1 0-6.788h0a4.8 4.8 0 0 1 6.788 0z"/><g class="B"><path d="M1382.05 794.22l1.702 1.702m-47.126-51.747l47.734 47.734m-33.175-37.515l35.345 35.345"/></g><rect width="16.141" height="16.141" rx=".344" transform="matrix(.708525 -.705686 .705686 .708525 1378.621 769.602)"/><path d="M1393.05 764.472l-2.956-2.977-2.974 2.95 2.954 2.977zm-2.97.977l-.985-.992.993-.985.984.992zm5.016 1.098l-3.085 3.062 3.062 3.085 3.085-3.062zm-.015 4.1l-1.02-1.03 1.028-1.02 1.02 1.028zm-13.12-1.1l2.974 3 3-2.974-2.974-3zm3-.983l1 1-1 1-1-1z"/><g class="B"><path d="M1366.04 709.685l-7.667 7.667m-7.203 7.2l-12.603 12.603"/></g></g><path d="M1409.882 769.8c-5.2-5.2-1.816-8.578-7.014-13.774s-8.578-1.816-13.774-7.013-1.816-8.578-7.014-13.775-8.58-1.817-13.777-7.015-1.817-8.58-7.015-13.776" class="D"/><g class="C"><path d="M1282.105 952.6l-72.55.162a1.6 1.6 0 0 1-1.64-1.562v-.05l-.162-75.358a1.6 1.6 0 0 1 1.56-1.639h.053l72.55-.162a1.6 1.6 0 0 1 1.639 1.564v.048l.162 75.358c.003.896-.716 1.627-1.612 1.64z"/><path d="M1246.598 892.4c-.458.023-.817.4-.82.86l.024 3.515c-.002.46-.362.837-.82.86l-3.514.025a.86.86 0 0 1-.859-.821l.017-8.76c-.023-.458-.4-.82-.86-.82l-3.515.025c-.46-.002-.837-.362-.86-.82l-.025-3.515c.002-.46.362-.836.82-.86l8.76.017c.458.002.836.36.86.82l.024 3.515c.023.458.4.82.86.82l3.515-.025c.457-.023.817-.4.82-.857l-.025-3.515c.002-.46.362-.837.82-.86l3.515-.024a.86.86 0 0 1 .859.819l.047 13.955c-.003.46-.363.836-.82.86l-3.515.024a.86.86 0 0 1-.856-.819l-.025-3.515c-.023-.458-.4-.817-.86-.82zm-15.655 15.772a.86.86 0 0 0-.82.86l.025 3.514c-.002.46-.362.837-.82.86l-3.516.025c-.46-.002-.837-.362-.86-.82l.017-8.76a.86.86 0 0 1 .819-.859l8.762.017c.458-.023.817-.4.82-.86l-.024-3.515a.86.86 0 0 1 .819-.859l3.515-.025c.46.002.836.363.86.82l-.017 8.76c-.002.46-.362.836-.82.86zm24.457 5.124c.458-.023.818-.4.82-.86l-.024-3.515a.86.86 0 0 1 .819-.859l3.516-.025c.46.002.837.362.86.82l.06 8.787c-.002.46-.362.837-.82.86l-13.954.046c-.46-.002-.837-.362-.86-.82l-.024-3.515a.86.86 0 0 1 .819-.859zm-3.5 10.464l3.515-.025c.46.002.837.362.86.82l-.017 8.76c-.002.46-.362.836-.82.86l-3.515.025c-.46-.002-.836-.363-.86-.82l.017-8.76a.8.8 0 0 1 .732-.857.83.83 0 0 1 .088-.003zm-10.483 5.267l3.515-.024c.46.002.837.362.86.82l.024 3.515a.86.86 0 0 1-.819.859l-3.515.025c-.46-.002-.836-.363-.86-.82l-.024-3.515a.86.86 0 0 1 .819-.86zm.02 10.44l3.516-.024c.458.002.836.36.86.82l.024 3.515c-.002.458-.36.836-.82.86l-3.515.024c-.458-.002-.836-.36-.86-.82l-.024-3.515a.86.86 0 0 1 .818-.859zm10.44-.022l3.515-.024c.458.002.835.36.86.82l.024 3.515c-.002.46-.362.837-.82.86l-3.514.024a.86.86 0 0 1-.859-.819l-.024-3.515a.86.86 0 0 1 .82-.859zm-20.958-26.108l3.515-.024c.46.002.836.363.86.82l.024 3.514c-.002.46-.362.837-.82.86l-3.514.025c-.46-.002-.837-.362-.86-.82l-.026-3.515c.003-.46.363-.836.822-.86zm14.804-14.832a.86.86 0 0 1 .821-.859l3.515-.025c.46.002.837.362.86.82l.025 3.515a.86.86 0 0 0 .859.821l3.515-.025c.46.002.837.362.86.82l.024 3.515a.86.86 0 0 1-.819.859l-8.76-.017a.86.86 0 0 1-.859-.819zm-30.54 4.452l3.515-.024c.458.002.835.36.86.82l-.017 8.76c-.002.46-.362.837-.82.86l-3.515.024c-.46-.002-.837-.362-.86-.82l.017-8.76a.8.8 0 0 1 .739-.857l.082-.002zm9.678 16.55c-.023-.458-.4-.818-.86-.82l-8.76-.017a.86.86 0 0 0-.82.86l.025 3.515a.86.86 0 0 0 .859.819l3.515-.024c.46.002.837.362.86.82l-.017 8.76c-.003.46-.363.836-.82.86l-3.515.024a.86.86 0 0 0-.819.859l-.017 8.76a.86.86 0 0 0 .859.821l3.515-.025c.458-.023.82-.4.82-.86l-.025-3.515c.002-.46.363-.836.82-.86l8.76.017c.46.002.836.363.86.82l.024 3.515a.86.86 0 0 0 .859.819l3.515-.024c.458-.023.818-.4.82-.86l-.025-3.515a.86.86 0 0 1 .821-.859l3.515-.025a.86.86 0 0 0 .819-.859l-.024-3.515c-.023-.458-.4-.818-.86-.82l-3.515.025c-.46-.002-.837-.362-.86-.82l-.025-3.515c.002-.46.362-.837.82-.86l3.515-.025a.86.86 0 0 0 .819-.859l-.024-3.514a.86.86 0 0 1 .819-.859l3.515-.025a.86.86 0 0 0 .821-.859l-.025-3.515a.86.86 0 0 0-.86-.82l-8.76-.017c-.458.023-.817.4-.82.86l.024 3.515a.86.86 0 0 1-.819.859l-8.76-.017a.86.86 0 0 1-.859-.819zm.022 10.44a.86.86 0 0 1 .818-.859l3.516-.024c.458.002.836.36.86.82l.024 3.515c-.002.458-.36.836-.82.86l-3.515.024a.86.86 0 0 1-.859-.819zm37.408-27.086l3.515-.025c.46.002.837.362.86.82l.024 3.515a.86.86 0 0 1-.819.859l-3.515.025c-.46-.002-.836-.363-.86-.82l-.024-3.515a.83.83 0 0 1 .8-.858zm-20.92 5.3l3.514-.024c.458.002.835.36.86.82l.025 3.515c-.002.46-.362.837-.82.86l-3.515.024a.86.86 0 0 1-.859-.819l-.024-3.515c.001-.525.325-.942.82-.86zm31.357-5.315l3.515-.025c.46.002.836.363.86.82l.024 3.515a.86.86 0 0 1-.819.859l-3.515.025c-.46-.002-.837-.362-.86-.82l-.024-3.515a.8.8 0 0 1 .734-.856.73.73 0 0 1 .085-.003zm-6.07 11.338c.002-.46.362-.837.82-.86l8.76.017c.46.002.837.362.86.82l.024 3.515a.86.86 0 0 1-.819.859l-3.515.025a.86.86 0 0 0-.821.859l.025 3.515c-.003.46-.363.836-.82.86l-8.76-.017c-.46-.002-.837-.362-.86-.82l-.024-3.515a.86.86 0 0 1 .818-.859l3.516-.025c.458-.023.82-.4.82-.86zm-5.264-17.405a.86.86 0 0 0 .859.819l13.953-.046a.86.86 0 0 0 .82-.859l-.046-13.953a.86.86 0 0 0-.86-.82l-13.955.046c-.458.023-.818.4-.82.86zm5.3-8.8c.002-.46.362-.837.82-.86l3.515-.025c.46.003.836.363.86.82l.024 3.515c-.002.46-.363.836-.82.86l-3.514.024a.86.86 0 0 1-.859-.821zm-51.518-5.966a.86.86 0 0 0-.821.859l.047 13.955a.86.86 0 0 0 .859.821l13.955-.047c.458-.023.818-.4.82-.86l-.047-13.955a.86.86 0 0 0-.86-.82zm4.4 6.07a.86.86 0 0 1 .821-.859l3.515-.025c.46.002.837.362.86.82l.025 3.515c-.002.46-.362.837-.82.86l-3.515.025a.86.86 0 0 1-.859-.821zm57.61 41.71a.86.86 0 0 0-.859-.819l-13.956.046c-.458.023-.818.4-.82.86l.047 13.955a.86.86 0 0 0 .859.819l13.955-.046a.86.86 0 0 0 .82-.86zm-5.2 8.82a.86.86 0 0 1-.82.86l-3.514.024a.86.86 0 0 1-.859-.819l-.025-3.515c.002-.46.363-.836.82-.86l3.515-.024c.46.002.837.362.86.82z"/><rect width="72.685" height="103.745" rx="6.431" transform="matrix(.707107 -.707107 .707107 .707107 1184.669 772.084)"/><rect width="26.635" height="26.635" rx=".568" transform="matrix(.708525 -.705686 .705686 .708525 1216.765 771.58)"/><path d="M1227.095 766.64l-4.9 4.876 4.872 4.912 4.912-4.875zm1.613 4.9l-1.638 1.625-1.624-1.638 1.637-1.624zm1.812-8.275l5.053 5.1 5.1-5.052-5.053-5.1zm6.763.025l-1.7 1.684-1.685-1.7 1.7-1.684zm-1.797 21.652l4.945-4.908-4.908-4.946-4.946 4.908zm-1.623-4.933l1.648-1.635 1.636 1.647-1.648 1.635z"/><path d="M1191.768 771.928l44.14-44.14 63.24 63.24-44.14 44.14z"/><g class="B"><path d="M1276.767 819.57l6.785-6.785m-33.325 17.602s-7.863-15.192 3.1-29.52c12.126-15.844 24.784-29.015 4.9-50.754m-3.22 85.055s-5.168-8.266 9.172-26.477 21.057-24.32 18.68-33.953"/></g><rect width="33.223" height="7.552" rx="3.761" transform="matrix(.707107 -.707107 .707107 .707107 1118.136 974.531)"/><rect width="33.223" height="7.552" rx="3.761" transform="matrix(.707107 -.707107 .707107 .707107 1141.442 997.837)"/><rect width="33.223" height="7.552" rx="3.761" transform="matrix(.707107 -.707107 .707107 .707107 1129.789 986.184)"/><rect width="98.903" height="67.184" rx="12.234" transform="matrix(.707107 -.707107 .707107 .707107 1071.097 1002.71)"/><rect width="28.344" height="28.344" rx=".604" transform="matrix(.708525 -.705686 .705686 .708525 1095.799 1005.432)"/><path d="M1106.792 1000.175l-5.227 5.2 5.184 5.227 5.227-5.187zm1.716 5.214l-1.742 1.73-1.73-1.743 1.742-1.73zm1.927-8.806l5.378 5.417 5.417-5.377-5.377-5.417zm7.2.027l-1.806 1.792-1.793-1.8 1.806-1.793zm-1.915 23.04l5.263-5.223-5.223-5.263-5.26 5.225zm-1.727-5.25l1.754-1.74 1.74 1.753-1.753 1.74z"/><path d="M1313.2 1000.954v-94.687h68.83v109.9" class="B"/><path d="M1372.14 1016.164h-68.83l9.887-15.21h68.83z"/><path d="M1372.9 1016.164h19.013l-9.887-15.21" class="B"/><rect width="24.2" height="24.2" rx=".516" transform="matrix(.002 -1 1 .002 1351.32 993.885)"/><path d="M1361.178 973.146l-6.288-.023-.023 6.288 6.287.023zm-2.1 4.184l-2.1-.008.007-2.1 2.1.008zm-4.256 12.966l6.33.024.023-6.33-6.33-.023zm2.126-4.2l2.1.008-.01 2.1-2.108-.01zm8.6-12.906l-.024 6.517 6.517.024.024-6.517zm4.328 4.36l-2.172-.008.008-2.172 2.172.008z"/></g><path d="M1317.788 933.233s24.427-11.6 24.117-6.992-22.636 18.468-13.638 19.87c5.41.842 26.16-21.575 36.365-21.155 8.883.366-28.28 25.647-18.436 25.45 7.432-.15 26-14.806 28.118-9.9.794 1.85-8.936 8.99-4.085 12.67" class="B D"/></g></svg>