<svg class="footer-logo" width="64" height="32" viewBox="0 0 100 50" fill="none" xmlns="https://www.w3.org/2000/svg">
            <g clip-path="url(#clip0_1_34779)">
                <path d="M52.0699 33.7498C47.0699 33.7498 44.2799 30.7498 44.2799 27.0798C44.2799 25.5698 44.3499 14.3698 44.3499 14.3698C42.7099 14.3698 41.8999 13.5098 41.8999 12.4398C41.9047 12.1526 41.9678 11.8694 42.0854 11.6073C42.203 11.3453 42.3726 11.1098 42.5839 10.9153C42.7953 10.7208 43.044 10.5712 43.3149 10.4758C43.5858 10.3803 43.8733 10.3408 44.1599 10.3598C44.1599 10.3598 44.1599 6.61984 44.1599 5.06984C44.152 4.65104 44.2271 4.23482 44.381 3.84523C44.5348 3.45564 44.7644 3.10041 45.0564 2.80007C45.3483 2.49972 45.6969 2.26022 46.082 2.09541C46.4671 1.93059 46.881 1.84373 47.2999 1.83984C48.1495 1.84777 48.9613 2.19221 49.5574 2.79766C50.1535 3.40312 50.4852 4.22021 50.4799 5.06984C50.4799 6.39984 50.3599 8.23984 50.3699 10.2798H53.6399C55.3599 10.2798 56.0699 11.2198 56.0699 12.4298C56.0706 12.7047 56.0146 12.9767 55.9054 13.229C55.7963 13.4812 55.6363 13.7083 55.4355 13.896C55.2347 14.0836 54.9974 14.2279 54.7383 14.3197C54.4793 14.4116 54.2041 14.4491 53.9299 14.4298C52.8099 14.4298 50.3299 14.4298 50.3299 14.4298C50.2199 17.9998 50.1099 22.3098 50.1099 25.7498C50.1081 26.1235 50.1848 26.4933 50.3349 26.8354C50.4851 27.1776 50.7053 27.4844 50.9815 27.736C51.2577 27.9877 51.5836 28.1786 51.9381 28.2964C52.2927 28.4142 52.6681 28.4562 53.0399 28.4198C57.7999 28.4198 59.1699 23.6198 59.1699 14.5698C59.1699 13.997 59.3975 13.4476 59.8026 13.0425C60.2076 12.6374 60.757 12.4098 61.3299 12.4098C61.9028 12.4098 62.4522 12.6374 62.8573 13.0425C63.2623 13.4476 63.4899 13.997 63.4899 14.5698C63.4999 26.4298 60.4999 33.7498 52.0699 33.7498Z" fill="#FF6116"></path>
                <path d="M72.3702 14.7998C73.3369 14.1076 74.4423 13.6333 75.6102 13.4098C76.8202 13.4098 76.6102 13.6298 76.6102 14.8298C76.6102 27.7498 74.2702 33.8298 65.9102 33.8298C62.2702 33.8298 58.9102 31.1198 58.9102 27.8298C58.9102 26.5398 59.1302 23.9598 59.1302 22.6698C59.1302 10.1798 58.9402 7.53978 58.9402 3.86978C58.9448 3.00253 59.2845 2.17064 59.8884 1.54814C60.4923 0.925641 61.3134 0.560747 62.1802 0.529785C62.5928 0.530945 63.001 0.614736 63.3807 0.776217C63.7604 0.937697 64.104 1.17359 64.391 1.46999C64.6781 1.76639 64.9029 2.11728 65.0522 2.50196C65.2015 2.88664 65.2722 3.29733 65.2602 3.70978C65.2602 7.36978 64.8602 12.7098 64.7502 26.4898C64.7502 27.6398 65.3002 28.4898 66.8002 28.4898C71.4702 28.3698 72.1902 22.4598 72.3702 14.7998Z" fill="#FF6116"></path>
                <path d="M87.5302 31.56C87.5302 31.56 85.7702 33.86 81.3202 33.75C75.4102 33.61 72.6802 28.92 72.3902 24.09C72.1702 20.44 72.2702 17.86 72.2702 15.49C72.2431 15.0846 72.2986 14.6778 72.4334 14.2945C72.5682 13.9111 72.7794 13.5591 73.0544 13.2599C73.3293 12.9607 73.6621 12.7204 74.0327 12.5537C74.4033 12.3869 74.8039 12.2973 75.2102 12.29C76.9902 12.29 78.0302 13.76 78.0302 15.52C78.0302 17.89 77.8802 19.97 77.8602 22.52C77.8602 25.63 78.8602 28.38 81.4902 28.37C84.1202 28.36 86.7102 27.32 86.7802 21.98C86.7802 19.39 86.7202 17.85 86.7202 15.48C86.7202 14.6844 87.0363 13.9213 87.5989 13.3587C88.1615 12.7961 88.9246 12.48 89.7202 12.48C90.5159 12.48 91.2789 12.7961 91.8416 13.3587C92.4042 13.9213 92.7202 14.6844 92.7202 15.48C92.7202 17.85 92.5302 20.2 92.5302 23.86C92.5302 23.86 92.4202 31.25 92.6802 32.86C94.0606 32.2471 95.1972 31.1914 95.9102 29.86C96.2186 29.3554 96.7039 28.9837 97.2715 28.8173C97.839 28.6509 98.4482 28.7018 98.9802 28.96C99.4736 29.2894 99.8227 29.7945 99.9565 30.3724C100.09 30.9502 99.9986 31.5574 99.7002 32.07C98.5202 34.68 96.9902 36.28 93.1302 37.61C93.1302 42.04 92.8302 48.61 84.6402 49.76C77.6402 50.76 74.4402 46.7 74.4302 43.24C74.4302 37.77 79.8802 36.18 87.7702 34.24L87.5302 31.56ZM88.3002 38.64C84.3002 39.5 79.3002 40.75 79.3702 43.21C79.4302 45.51 81.8002 45.93 83.7902 45.52C87.9002 44.67 88.3802 42.24 88.3002 38.64Z" fill="#FF6116"></path>
                <path d="M31.4302 27.7598C31.4302 26.2498 31.2602 14.1298 31.2602 14.1298C31.2121 13.7204 31.2511 13.3054 31.3749 12.9122C31.4986 12.5189 31.7042 12.1563 31.9782 11.8483C32.2521 11.5402 32.5882 11.2936 32.9643 11.1248C33.3404 10.9559 33.748 10.8687 34.1602 10.8687C34.5725 10.8687 34.9801 10.9559 35.3562 11.1248C35.7323 11.2936 36.0683 11.5402 36.3423 11.8483C36.6162 12.1563 36.8218 12.5189 36.9456 12.9122C37.0693 13.3054 37.1084 13.7204 37.0602 14.1298C36.8502 19.7998 36.7602 23.5398 36.7602 25.5198C36.7602 26.6598 37.3902 28.4198 39.2402 28.4198C43.5102 28.4198 44.4002 24.4198 44.4002 14.8798C44.4534 14.2823 44.7322 13.7274 45.1799 13.328C45.6275 12.9286 46.2105 12.7148 46.8102 12.7298C47.0938 12.7272 47.375 12.7809 47.6376 12.8879C47.9003 12.9949 48.139 13.153 48.34 13.353C48.5409 13.5531 48.7001 13.7911 48.8083 14.0532C48.9165 14.3153 48.9716 14.5963 48.9702 14.8798C48.9702 29.3598 46.4502 33.7498 38.2702 33.7498C34.9002 33.7698 31.4302 31.6698 31.4302 27.7598Z" fill="#FF6116"></path>
                <path d="M33.3601 11.9701C32.1901 11.9701 32.1101 12.2201 31.3601 13.4401C31.3601 18.7801 30.8101 24.6201 23.9401 27.7901C28.5501 19.4101 24.0601 10.6601 16.9901 10.6601C14.509 10.581 12.0842 11.4094 10.1701 12.9901C10.1701 10.4001 10.2601 5.80008 10.2601 5.80008C10.2601 2.61008 9.14011 0.0600834 5.26011 8.34372e-05C4.1772 -0.060836 3.10384 0.232026 2.20194 0.834499C1.30003 1.43697 0.61849 2.31638 0.260107 3.34008C0.0499469 3.71468 -0.0142344 4.15378 0.0799199 4.57286C0.174074 4.99194 0.419908 5.36138 0.770105 5.61008C1.13915 5.76362 1.54879 5.78996 1.93446 5.68494C2.32012 5.57993 2.65986 5.34953 2.90011 5.03008C3.23011 4.61008 3.42011 4.52008 3.71011 4.55008C4.19011 4.61008 4.21011 5.38008 4.23011 5.87008C4.25011 6.36008 4.6201 10.7601 4.4101 24.8701C4.4101 28.7601 7.4801 33.7701 14.8201 33.7701C28.2501 33.7701 36.3101 27.4101 36.3101 13.5501C36.2601 12.4201 34.5401 11.9701 33.3601 11.9701ZM14.7701 28.3401C12.0301 28.3401 10.2801 27.3401 10.1601 24.9201C10.1189 24.1773 10.1189 23.4328 10.1601 22.6901C10.4301 19.2101 12.6201 16.9501 15.0401 16.4701C18.0401 15.8701 20.0401 17.2401 20.0401 21.1501C20.0501 23.8001 19.3101 28.2401 14.7701 28.3401Z" fill="#FF6116"></path>
                <path d="M34.1702 8.29986C35.9596 8.29986 37.4102 6.85822 37.4102 5.07986C37.4102 3.30151 35.9596 1.85986 34.1702 1.85986C32.3808 1.85986 30.9302 3.30151 30.9302 5.07986C30.9302 6.85822 32.3808 8.29986 34.1702 8.29986Z" fill="#FF6116"></path>
            </g>
            <defs>
                <clipPath id="clip0_1_34779">
                    <rect width="100" height="50" fill="white"></rect>
                </clipPath>
            </defs>
        </svg>